#N canvas 63 88 450 300 10;
#X obj 212 126 bng 15 250 50 0 empty empty empty 17 7 0 10 #fcfcfc #000000 #000000;
#X msg 250 129 size \$1;
#X floatatom 249 110 5 0 0 0 - - - 0;
#X obj 236 215 print;
#X obj 163 87 metro 10;
#X obj 164 65 tgl 15 0 empty empty empty 17 7 0 10 #fcfcfc #000000 #000000 0 1;
#X floatatom 209 61 5 0 0 0 - - - 0;
#X obj 219 163 orbits 120;
#X connect 0 0 7 0;
#X connect 1 0 7 0;
#X connect 2 0 1 0;
#X connect 4 0 7 0;
#X connect 5 0 4 0;
#X connect 6 0 4 1;
#X connect 7 0 3 0;
